<svg xmlns="http://www.w3.org/2000/svg" width="187.915" height="187.952" viewBox="0 0 187.915 187.952">
  <g id="delivery" transform="translate(-1)">
    <g id="Grupo_39" data-name="Grupo 39" transform="translate(54.706)">
      <path id="Trazado_372" data-name="Trazado 372" d="M165.067,26.431l12.848,6.5V0H147.3V32.928l12.812-6.5A5.481,5.481,0,0,1,165.067,26.431Z" transform="translate(-147.3)" fill="#ef1837" fill-rule="evenodd"/>
      <path id="Trazado_373" data-name="Trazado 373" d="M279.394,163A52.484,52.484,0,0,0,226.9,215.494c0,13.839,7.856,32.121,17.841,47.061,10.756,16.042,24.522,28.56,34.654,28.56s23.9-12.518,34.654-28.56c10.022-14.941,17.841-33.222,17.841-47.061A52.484,52.484,0,0,0,279.394,163Zm0,72.685a20.19,20.19,0,1,1,20.19-20.19A20.179,20.179,0,0,1,279.394,235.685Z" transform="translate(-197.679 -103.164)" fill="#ef1837" fill-rule="evenodd"/>
      <path id="Trazado_374" data-name="Trazado 374" d="M363.191,290.177A9.2,9.2,0,1,1,353.977,281,9.22,9.22,0,0,1,363.191,290.177Z" transform="translate(-272.299 -177.846)" fill="#ef1837" fill-rule="evenodd"/>
    </g>
    <g id="Grupo_40" data-name="Grupo 40" transform="translate(1)">
      <path id="Trazado_375" data-name="Trazado 375" d="M146.229,317.934a3.472,3.472,0,0,0-.881-.514,2.916,2.916,0,0,0-1.175-.22,3.177,3.177,0,0,0-2.973,2.129h5.874a2.037,2.037,0,0,0-.257-.7A5.363,5.363,0,0,0,146.229,317.934Z" transform="translate(-89.733 -200.758)" fill="#ef1837" fill-rule="evenodd"/>
      <path id="Trazado_376" data-name="Trazado 376" d="M103.829,317.934a3.472,3.472,0,0,0-.881-.514,3.044,3.044,0,0,0-1.175-.22,3.177,3.177,0,0,0-2.973,2.129h5.874a2.037,2.037,0,0,0-.257-.7A2.585,2.585,0,0,0,103.829,317.934Z" transform="translate(-62.898 -200.758)" fill="#ef1837" fill-rule="evenodd"/>
      <path id="Trazado_377" data-name="Trazado 377" d="M133.484,0H96.334V41.849A5.5,5.5,0,0,1,88,46.584l-17.988-9.1L51.659,46.768a5.5,5.5,0,0,1-7.966-4.919V0H6.506A5.5,5.5,0,0,0,1,5.506V132.484a5.5,5.5,0,0,0,5.506,5.506H78.273c-3.377-8.92-5.4-17.767-5.4-25.66A63.548,63.548,0,0,1,138.991,48.86V5.506A5.5,5.5,0,0,0,133.484,0ZM20.2,113.689V117.1h-3.23v9.912H12.857V117.1H10.508v-3.414h2.349V112.7a5.159,5.159,0,0,1,1.468-4,5.437,5.437,0,0,1,3.854-1.358,6.431,6.431,0,0,1,1.468.147,9.065,9.065,0,0,1,1.285.367l-1.175,3.634c-.184-.073-.367-.147-.587-.22a4.519,4.519,0,0,0-.734-.073,1.373,1.373,0,0,0-1.138.477,1.886,1.886,0,0,0-.4,1.248v.808h3.3Zm11.417,3.781a4.375,4.375,0,0,0-.734-.294,3.8,3.8,0,0,0-1.028-.11,2.7,2.7,0,0,0-2.313,1.065,4.419,4.419,0,0,0-.808,2.79v6.094H22.622V113.689H26.44v1.689H26.7a5.04,5.04,0,0,1,1.542-1.505,4.285,4.285,0,0,1,2.239-.624,4.517,4.517,0,0,1,1.285.184,3.3,3.3,0,0,1,.881.4Zm14.977,3.157c0,.147-.037.257-.037.367s-.037.257-.037.367H36.682a2.957,2.957,0,0,0,1.211,1.909,3.719,3.719,0,0,0,2.056.587,3.429,3.429,0,0,0,1.909-.477,3.475,3.475,0,0,0,1.175-1.248l3.3,1.652a7.024,7.024,0,0,1-6.424,3.671,8.1,8.1,0,0,1-2.863-.514,7.529,7.529,0,0,1-2.313-1.468,6.786,6.786,0,0,1-1.542-2.239,7.434,7.434,0,0,1,0-5.617,7.924,7.924,0,0,1,1.505-2.276,6.939,6.939,0,0,1,2.276-1.542,7.072,7.072,0,0,1,2.827-.587,7.352,7.352,0,0,1,2.937.551,5.813,5.813,0,0,1,2.092,1.468,6.57,6.57,0,0,1,1.285,2.2,8.265,8.265,0,0,1,.441,2.716A2.258,2.258,0,0,1,46.593,120.627Zm15.528,0c0,.147-.037.257-.037.367s-.037.257-.037.367H52.21a2.957,2.957,0,0,0,1.211,1.909,3.719,3.719,0,0,0,2.056.587,3.513,3.513,0,0,0,1.909-.477,3.475,3.475,0,0,0,1.175-1.248l3.3,1.652a7.024,7.024,0,0,1-6.424,3.671,8.1,8.1,0,0,1-2.863-.514,7.529,7.529,0,0,1-2.313-1.468,6.786,6.786,0,0,1-1.542-2.239,7.434,7.434,0,0,1,0-5.617,7.923,7.923,0,0,1,1.505-2.276A6.939,6.939,0,0,1,52.5,113.8a7.072,7.072,0,0,1,2.827-.587,7.352,7.352,0,0,1,2.937.551,5.813,5.813,0,0,1,2.092,1.468,6.57,6.57,0,0,1,1.285,2.2,8.264,8.264,0,0,1,.441,2.716A.73.73,0,0,1,62.121,120.627Z" transform="translate(-1)" fill="#ef1837" fill-rule="evenodd"/>
    </g>
  </g>
</svg>
