<svg xmlns="http://www.w3.org/2000/svg" width="187.96" height="187.951" viewBox="0 0 187.96 187.951">
  <g id="insurance" transform="translate(0 0)">
    <path id="Trazado_369" data-name="Trazado 369" d="M138.033,41.05V5.506A5.506,5.506,0,0,0,132.527,0H95.342V34.531A5.5,5.5,0,0,1,87,39.252L69.017,30.146l-18.345,9.29a5.506,5.506,0,0,1-7.967-4.9L42.691,0H5.507A5.506,5.506,0,0,0,0,5.506v127.02a5.506,5.506,0,0,0,5.507,5.507H66.762A78.536,78.536,0,0,1,64.6,119.242V73.421a16.13,16.13,0,0,1,8.515-14.4c20.26-11.567,41.286-19.04,64.92-17.968Zm0,0" fill="#ef1837" fill-rule="evenodd"/>
    <path id="Trazado_370" data-name="Trazado 370" d="M164.075,19.085l12.839,6.5V0H146.289V25.586l12.829-6.495a5.483,5.483,0,0,1,4.957-.006Zm0,0" transform="translate(-92.585 0)" fill="#ef1837" fill-rule="evenodd"/>
    <path id="Trazado_371" data-name="Trazado 371" d="M318.307,162.936a5.5,5.5,0,0,0-2.425-4.56c-35.293-23.846-71.125-21.153-106.749-.427a5.505,5.505,0,0,0-3.169,4.988v45.82c0,15.6,4.438,30.978,17.337,40.728l35.458,26.8a5.5,5.5,0,0,0,6.716.069l35.518-26.875c12.889-9.751,17.32-25.118,17.32-40.711ZM289.4,192.343l-27.35,27.35a5.507,5.507,0,0,1-7.787,0l-12.528-12.528a5.506,5.506,0,0,1,7.787-7.787l8.634,8.634,23.456-23.456a5.506,5.506,0,1,1,7.787,7.787Zm0,0" transform="translate(-130.353 -89.514)" fill="#ef1837" fill-rule="evenodd"/>
  </g>
</svg>
