<svg xmlns="http://www.w3.org/2000/svg" width="201" height="200.995" viewBox="0 0 201 200.995">
  <g id="logistic" transform="translate(0 0)">
    <path id="Trazado_382" data-name="Trazado 382" d="M156.876,82.435h70.658a5.888,5.888,0,0,0,5.889-5.889V5.889A5.888,5.888,0,0,0,227.534,0H209.867V22.449a5.882,5.882,0,0,1-8.822,5.107l-9.063-4.377-9.437,4.461a5.9,5.9,0,0,1-8.384-5.314L174.148,0H156.876a5.888,5.888,0,0,0-5.889,5.889V76.546a5.888,5.888,0,0,0,5.889,5.889Zm0,0" transform="translate(-91.713)" fill="#ef1837"/>
    <path id="Trazado_383" data-name="Trazado 383" d="M248.617,11.379l3.53,1.7V0H239.98V13.046l3.578-1.688a5.856,5.856,0,0,1,5.059.021Zm0,0" transform="translate(-145.769 0)" fill="#ef1837"/>
    <path id="Trazado_384" data-name="Trazado 384" d="M402.974,248.043l8.355-31.182a13.519,13.519,0,0,0,.46-3.564v-64.76a13.548,13.548,0,1,0-27.1,0v46.582a13.532,13.532,0,0,0-24.49,3.78l-13.168,49.145Zm0,0" transform="translate(-210.797 -81.995)" fill="#ef1837"/>
    <path id="Trazado_385" data-name="Trazado 385" d="M373.75,452.973H299.981a5.888,5.888,0,0,0-5.887,5.889v11.382a5.892,5.892,0,0,0,5.9,5.887l73.36-.014a5.888,5.888,0,0,0,6.289-5.873V458.862a5.888,5.888,0,0,0-5.889-5.889Zm0,0" transform="translate(-178.639 -275.146)" fill="#ef1837"/>
    <path id="Trazado_386" data-name="Trazado 386" d="M79.658,452.973H5.889A5.888,5.888,0,0,0,0,458.862v11.382a5.714,5.714,0,0,0,6.068,5.884l73.581,0a5.888,5.888,0,0,0,5.9-5.887V458.862a5.888,5.888,0,0,0-5.887-5.889Zm0,0" transform="translate(0 -275.146)" fill="#ef1837"/>
    <path id="Trazado_387" data-name="Trazado 387" d="M8.834,248.043H64.773L51.605,198.9a13.61,13.61,0,0,0-16.591-9.581,13.419,13.419,0,0,0-7.9,5.8V148.537a13.549,13.549,0,0,0-27.1,0V213.3a13.521,13.521,0,0,0,.46,3.564Zm0,0" transform="translate(-0.012 -81.995)" fill="#ef1837"/>
  </g>
</svg>
