<svg xmlns="http://www.w3.org/2000/svg" viewBox="0 0 926.07 118.49"><defs><style>.cls-1{fill:#fff;}</style></defs><g id="Capa_2" data-name="Capa 2"><g id="Capa_2-2" data-name="Capa 2"><path class="cls-1" d="M150.45,81.26v-50H139v60.6h42.59V81.26Z"/><path class="cls-1" d="M220.91,49.15V71c0,6.49-4.41,12-10.9,12-6.76,0-10.31-4.94-10.31-11.43V49.15H189.14V71.57c0,13.24,7.45,21,17.66,21,6,0,10-2.08,14.46-6.41l.69,5.8h9.44V49.15Z"/><path class="cls-1" d="M254.16,81.44l19.65-27.27v-5h-34.2v9.61h18.88L238.06,87.41v4.42H274V81.44Z"/><path class="cls-1" d="M349.72,31.31l-19,26.06-19-26.06H298.65v60.6h11.43V47.85l19.3,26.4h2.25l19.74-26.31v44H362.8V31.31Z"/><path class="cls-1" d="M407.47,49.15,407.12,55c-2.42-4.24-7.88-6.92-13.59-6.92-12.47-.09-22.25,7.62-22.25,22.33,0,15,9.35,22.77,22,22.68,4.76-.08,11.43-2.5,13.85-7.53l.52,6.24h9.95V49.15Zm-13,34.28c-7,0-12.64-4.85-12.64-13s5.63-12.9,12.64-12.9C411.1,57.54,411.1,83.43,394.48,83.43Z"/><path class="cls-1" d="M449.11,48c-4.33,0-8.75.78-12,6.06l-.78-4.93h-9.78V91.83h10.56V69.32c0-7.88,5.11-10.82,10.65-10.82a10.56,10.56,0,0,1,7.62,2.77l4.76-9.18C457.76,49.75,453.52,48,449.11,48Z"/><path class="cls-1" d="M535.67,61c-.26-15-9.52-29.78-30.3-29.78h-23.8v60.6h23.8C526.58,91.83,535.93,76.33,535.67,61Zm-30.3,19.82H492.91V42.05h12.46c13.16,0,18.7,9.43,19,18.87C524.59,70.79,519.14,80.83,505.37,80.83Z"/><path class="cls-1" d="M565,48c-4.33,0-8.74.78-12,6.06l-.78-4.93h-9.78V91.83H553V69.32c0-7.88,5.1-10.82,10.64-10.82a10.53,10.53,0,0,1,7.62,2.77L576,52.09C573.67,49.75,569.43,48,565,48Z"/><path class="cls-1" d="M600.08,48.28c-13.59,0-22.08,10-22.08,22.25s8.32,22.25,22.17,22.25,22.24-10,22.24-22.25S613.67,48.28,600.08,48.28Zm.09,34.8c-7.71,0-11.6-6.06-11.6-12.55s4-12.64,11.6-12.64c7.09,0,11.6,6.23,11.6,12.64S607.87,83.08,600.17,83.08Z"/><path class="cls-1" d="M670.72,69.4a18.17,18.17,0,0,0-4.5-12.63L671,50.7l-7.79-5.88L659,50.19c-3-2-6.41-2.43-9.79-2.43-11.94,0-21.64,8.31-21.64,21.64s8.31,21.47,21.64,21.47c5.28,0,10.82,2.69,10.82,8.57s-4.76,9.18-10.82,9.18S638,105,638,99.44H627.52c0,11.52,9.26,19,21.64,19s21.38-7.27,21.38-19c0-5.45-1.73-10.56-8.83-14.11C668.73,82.13,670.72,74.69,670.72,69.4ZM649.16,81.26C643,81.26,638,76.85,638,69.4s5-12,11.17-12,11.08,4.67,11.08,12S655.22,81.26,649.16,81.26Z"/><path class="cls-1" d="M709.5,49.15V71c0,6.49-4.42,12-10.91,12-6.75,0-10.3-4.94-10.3-11.43V49.15H677.73V71.57c0,13.24,7.44,21,17.66,21,6,0,10-2.08,14.45-6.41l.7,5.8H720V49.15Z"/><path class="cls-1" d="M750.1,47.85c-13.85,0-22.68,9.35-22.68,22.33,0,13.68,8.74,22.77,23.46,22.77,6.49,0,13.85-2.25,18.35-6.92l-6.75-6.67c-2.42,2.51-7.53,4-11.43,4-7.44,0-12-3.81-12.72-9.09h33.33C773.3,56.68,764.38,47.85,750.1,47.85ZM738.5,65.51c1.56-5.54,6.23-8.31,12-8.31,6.06,0,10.38,2.77,11.08,8.31Z"/><path class="cls-1" d="M802.39,48c-4.33,0-8.75.78-12,6.06l-.77-4.93h-9.79V91.83h10.56V69.32c0-7.88,5.11-10.82,10.65-10.82a10.53,10.53,0,0,1,7.62,2.77l4.76-9.18C811,49.75,806.8,48,802.39,48Z"/><path class="cls-1" d="M817.36,50.62V91.83h11.09V50.62Zm3.9-19.22-3.64,12.29v.52h8.57l6.41-12.37V31.4Z"/><path class="cls-1" d="M871.81,49.15,871.47,55c-2.42-4.24-7.88-6.92-13.59-6.92-12.47-.09-22.25,7.62-22.25,22.33,0,15,9.35,22.77,22,22.68,4.76-.08,11.43-2.5,13.85-7.53l.52,6.24h10V49.15Zm-13,34.28c-7,0-12.64-4.85-12.64-13s5.63-12.9,12.64-12.9C875.45,57.54,875.45,83.43,858.83,83.43Z"/><path class="cls-1" d="M918.25,60.56c-3-2.83-6.44-3.78-10.48-3.78-5,0-7.73,1.55-7.73,4.21s2.49,4.3,7.9,4.64c8,.52,18.13,2.32,18.13,13.58,0,7.47-6.1,13.91-18.21,13.91-6.7,0-13.4-1.11-19.59-7.56l5.16-7.47c3,3.35,9.88,5.84,14.6,5.93,4,.08,7.65-2,7.65-5.07,0-2.92-2.41-4.13-8.42-4.47-8-.6-17.53-3.52-17.53-13.14,0-9.8,10.14-13.23,17.87-13.23,6.62,0,11.6,1.29,16.5,5.58Z"/><path class="cls-1" d="M37,64.09A74.31,74.31,0,0,0,64,37.14,73.46,73.46,0,0,0,74,1.27c0-.37,0-.75,0-1.13H37v37H0V74a73.6,73.6,0,0,0,37-9.9Z"/><path class="cls-1" d="M110.9,37.14A73.6,73.6,0,0,0,74,47h0A74.34,74.34,0,0,0,46.8,74.15a73.46,73.46,0,0,0-9.8,33c0,.07,0,.15,0,.22-.06,1.24-.09,2.48-.09,3.74H74v-37h37v.56l0,0a.94.94,0,0,0,.2-.54H111v-37Z"/><path class="cls-1" d="M80.15,12.06l9.4,7.1L86,30.84a.19.19,0,0,0,.16.25h.07l0,0,9.28-7.26,9.24,7.29a.18.18,0,0,0,.12.05.18.18,0,0,0,.17-.18.19.19,0,0,0,0-.07h0l-3.54-11.69,9.31-7.06,0,0a.19.19,0,0,0,.05-.13.17.17,0,0,0-.17-.19H99.23L95.72.14h0s0,0,0,0a.18.18,0,0,0-.16-.1.16.16,0,0,0-.15.11v0L91.83,11.73l-11.61,0a.18.18,0,0,0-.17.19.17.17,0,0,0,0,.13A.09.09,0,0,0,80.15,12.06Z"/></g></g></svg>