<svg xmlns="http://www.w3.org/2000/svg" viewBox="0 0 496.13 498.86"><defs><style>.cls-1{fill:#fff;}</style></defs><g id="Capa_2" data-name="Capa 2"><g id="Capa_2-2" data-name="Capa 2"><g id="Grupo_2" data-name="Grupo 2"><g id="Grupo_1" data-name="Grupo 1"><path id="Trazado_1" data-name="Trazado 1" class="cls-1" d="M459.74,46.54H90.2a10.79,10.79,0,0,0-3.17.75l-9.09-30.8A22.64,22.64,0,0,0,56.37,0H11.27A11.45,11.45,0,0,0,0,11.63H0V34.9A11.46,11.46,0,0,0,11.27,46.54H39.68l70.43,238.83L83.83,317a49.63,49.63,0,0,0-10.29,45.48,45,45,0,0,0,43.14,33h323A11.46,11.46,0,0,0,451,383.87h0V360.61A11.44,11.44,0,0,0,439.7,349h-323l35.73-43a23.45,23.45,0,0,0,2.24-3.51H373.11a45,45,0,0,0,40.82-26.72L492.6,103.3a38.78,38.78,0,0,0,3.52-16V84a36.9,36.9,0,0,0-36.36-37.45Z"/><circle id="Elipse_1" data-name="Elipse 1" class="cls-1" cx="133.2" cy="457.51" r="41.34"/><circle id="Elipse_2" data-name="Elipse 2" class="cls-1" cx="413.34" cy="457.51" r="41.34"/></g></g></g></g></svg>