<svg xmlns="http://www.w3.org/2000/svg" viewBox="0 0 3130.53 783"><defs><style>.cls-1{fill:#fff;}.cls-2{fill:none;}</style></defs><g id="Capa_2" data-name="Capa 2"><g id="Capa_2-2" data-name="Capa 2"><path class="cls-1" d="M518.15,388.2V221H480V423.49h142.3V388.2Z"/><path class="cls-1" d="M753.59,280.89v72.89c0,21.69-14.74,39.92-36.43,39.92-22.57,0-34.43-16.49-34.43-38.18V280.89H647.44v74.92c0,44.25,24.88,70,59,70,20,0,33.56-6.93,48.32-21.4l2.31,19.38h31.52V280.89Z"/><path class="cls-1" d="M864.67,388.77l65.67-91.1V280.89H816.08V313h63.06l-68.26,95.74v14.75h120V388.77Z"/><path class="cls-1" d="M1184,221.3l-63.35,87.07-63.34-87.07h-44V423.78h38.18V276.55l64.5,88.22h7.52l66-87.93V423.78h38.18V221.3Z"/><path class="cls-1" d="M1376.94,280.89l-1.16,19.67c-8.1-14.18-26.32-23.15-45.41-23.15-41.66-.28-74.34,25.46-74.34,74.63,0,50,31.24,76.08,73.47,75.79,15.92-.29,38.18-8.38,46.28-25.16l1.74,20.82h33.26V280.89Zm-43.39,114.54c-23.43,0-42.23-16.2-42.23-43.39s18.8-43.09,42.23-43.09C1389.09,309,1389.09,395.43,1333.55,395.43Z"/><path class="cls-1" d="M1516.07,277.13c-14.47,0-29.21,2.61-40.2,20.25l-2.61-16.49h-32.68v142.6h35.29V348.28c0-26.32,17.06-36.15,35.57-36.15,11.57,0,18.22,3.18,25.45,9.25l15.91-30.65C1545,282.91,1530.83,277.13,1516.07,277.13Z"/><path class="cls-1" d="M1805.32,320.52c-.87-50-31.81-99.51-101.24-99.51h-79.54V423.49h79.54C1775,423.49,1806.19,371.72,1805.32,320.52Zm-101.24,66.23h-41.65V257.17h41.65c44,0,62.48,31.53,63.35,63.06C1768.3,353.21,1750.07,386.75,1704.08,386.75Z"/><path class="cls-1" d="M1903.38,277.13c-14.47,0-29.21,2.61-40.2,20.25l-2.61-16.49h-32.68v142.6h35.29V348.28c0-26.32,17-36.15,35.56-36.15,11.58,0,18.23,3.18,25.46,9.25l15.91-30.65C1932.3,282.91,1918.13,277.13,1903.38,277.13Z"/><path class="cls-1" d="M2020.53,278c-45.41,0-73.76,33.56-73.76,74.34,0,41.08,27.77,74.34,74,74.34s74.34-33.26,74.34-74.34C2095.16,311.55,2066,278,2020.53,278Zm.29,116.29c-25.74,0-38.77-20.25-38.77-41.95,0-21.4,13.31-42.22,38.77-42.22,23.71,0,38.76,20.82,38.76,42.22C2059.58,374,2046.55,394.28,2020.82,394.28Z"/><path class="cls-1" d="M2256.55,348.57c0-15.62-4-29.79-15-42.22l15.9-20.26-26-19.66-14.17,17.93c-9.84-6.66-21.4-8.1-32.69-8.1-39.91,0-72.31,27.77-72.31,72.31s27.77,71.74,72.31,71.74c17.64,0,36.15,9,36.15,28.63s-15.9,30.66-36.15,30.66-37.32-12.15-37.32-30.66h-35c0,38.47,31,63.64,72.31,63.64s71.44-24.3,71.44-63.64c0-18.22-5.78-35.28-29.5-47.14C2249.9,391.1,2256.55,366.22,2256.55,348.57Zm-72,39.63c-20.54,0-37.32-14.75-37.32-39.63s16.78-40.2,37.32-40.2c20.25,0,37,15.61,37,40.2S2204.78,388.2,2184.53,388.2Z"/><path class="cls-1" d="M2386.14,280.89v72.89c0,21.69-14.75,39.92-36.45,39.92-22.56,0-34.41-16.49-34.41-38.18V280.89H2280v74.92c0,44.25,24.86,70,59,70,20,0,33.56-6.93,48.3-21.4l2.33,19.38h31.52V280.89Z"/><path class="cls-1" d="M2521.8,276.55c-46.28,0-75.78,31.24-75.78,74.62,0,45.71,29.21,76.08,78.38,76.08,21.7,0,46.28-7.52,61.33-23.14l-22.57-22.27c-8.09,8.39-25.16,13.3-38.18,13.3-24.87,0-40.2-12.72-42.51-30.37h111.36C2599.32,306.05,2569.53,276.55,2521.8,276.55Zm-38.75,59c5.2-18.51,20.82-27.77,39.91-27.77,20.24,0,34.71,9.26,37,27.77Z"/><path class="cls-1" d="M2696.51,277.13c-14.46,0-29.21,2.61-40.2,20.25l-2.61-16.49H2621v142.6h35.29V348.28c0-26.32,17.06-36.15,35.57-36.15,11.58,0,18.22,3.18,25.46,9.25l15.91-30.65C2725.44,282.91,2711.26,277.13,2696.51,277.13Z"/><path class="cls-1" d="M2746.55,285.8V423.49h37V285.8Zm13-64.21-12.15,41.08v1.73h28.63L2797.46,223v-1.45Z"/><path class="cls-1" d="M2928.49,280.89l-1.15,19.67c-8.1-14.18-26.33-23.15-45.42-23.15-41.65-.28-74.33,25.46-74.33,74.63,0,50,31.23,76.08,73.47,75.79,15.91-.29,38.18-8.38,46.28-25.16l1.73,20.82h33.27V280.89ZM2885.1,395.43c-23.42,0-42.22-16.2-42.22-43.39S2861.68,309,2885.1,309C2940.64,309,2940.64,395.43,2885.1,395.43Z"/><path class="cls-1" d="M3083.66,319c-10-9.48-21.53-12.64-35-12.64-16.65,0-25.83,5.17-25.83,14.07,0,9.19,8.32,14.36,26.41,15.5,26.69,1.72,60.56,7.75,60.56,45.36,0,25-20.38,46.5-60.85,46.5-22.39,0-44.78-3.73-65.45-25.26l17.22-25c10.05,11.2,33,19.53,48.8,19.81,13.21.29,25.55-6.6,25.55-16.94,0-9.75-8-13.77-28.13-14.92-26.7-2-58.56-11.77-58.56-43.92,0-32.72,33.87-44.21,59.71-44.21,22.1,0,38.75,4.31,55.11,18.66Z"/><path class="cls-1" d="M139.08,330.8a248.43,248.43,0,0,0,90.23-90,245.83,245.83,0,0,0,33.32-119.86c0-1.25,0-2.51,0-3.77H139V240.78H15.46a.49.49,0,0,0,0,.12v123A246.1,246.1,0,0,0,139,330.83Z"/><path class="cls-1" d="M386,240.78A246,246,0,0,0,262.67,273.7a.05.05,0,0,0,0,0,248.39,248.39,0,0,0-90.82,90.71,245.65,245.65,0,0,0-32.73,110.39c0,.25,0,.5,0,.75q-.31,6.19-.31,12.49H262.67V364.43H386.22v1.87l0-.06a3.1,3.1,0,0,0,.66-1.81h-.66V240.78Z"/><path class="cls-1" d="M283.26,157l31.39,23.71-12,39a1,1,0,0,0,0,.24.57.57,0,0,0,.57.6.62.62,0,0,0,.23,0,1.77,1.77,0,0,0,.17-.12l31-24.26,30.89,24.35a.63.63,0,0,0,.39.17.59.59,0,0,0,.57-.61.74.74,0,0,0-.05-.24v0l-11.85-39.05,31.12-23.61a.63.63,0,0,0,.18-.12.7.7,0,0,0,.15-.43.58.58,0,0,0-.55-.63L347,155.88l-11.73-38.73,0-.05a.18.18,0,0,0,0-.09.57.57,0,0,0-.51-.34.54.54,0,0,0-.51.36l0,.12-11.89,38.7-38.8-.06a.61.61,0,0,0-.58.63.63.63,0,0,0,.17.43A.47.47,0,0,0,283.26,157Z"/><path class="cls-1" d="M150.91,683.64a313.42,313.42,0,0,1,5.66-37.89A279,279,0,0,1,165,614.19q4.47-13.08,9.7-24.67a192.43,192.43,0,0,1,8.84-17.73q3.61-6.13,6.47-10h26.24a115.65,115.65,0,0,1,6.42,10q3.56,6.1,8.84,17.61a153.46,153.46,0,0,1,8.81,24.87q3.54,13.37,8.36,31.61a223.35,223.35,0,0,1,6.54,37.81H228.59q-1.34-15-3.52-27.48H180.86q-2.19,12.47-3.52,27.48Zm33.79-47.92h35.5q-3.84-12.65-7.4-24.44a160.3,160.3,0,0,0-6.23-17.73,45.42,45.42,0,0,0-4-7.65q-2.48,3.15-7.89,17.17A268.63,268.63,0,0,0,184.7,635.72Z"/><path class="cls-1" d="M304.24,639.62V561.76h25.58v75.29q0,12.93,5.57,20.11t16.91,7.18A87,87,0,0,0,373.08,662V561.76h25.57V677.84a142,142,0,0,1-23.32,5.37,157.82,157.82,0,0,1-24,2.14Q304.24,685.35,304.24,639.62Z"/><path class="cls-1" d="M415.86,683.64v-81.1A90.54,90.54,0,0,1,436.92,595a101.91,101.91,0,0,1,23.34-2.85q19.39,0,28.81,9.17t9.41,25.72v56.57H472.9V629.83q0-7.89-3.8-12.27t-11.41-4.37a46.11,46.11,0,0,0-8.6.95,33,33,0,0,0-7.66,2.28v67.22Z"/><path class="cls-1" d="M550.2,623.55V620.8q0-60.75,54.47-60.76a166.15,166.15,0,0,1,17.64,1.05,100.07,100.07,0,0,1,15.54,2.64L635.1,582.3a126.86,126.86,0,0,0-23.39-2.39q-9.8,0-16.21,2.34a21,21,0,0,0-10.17,7.57,32.65,32.65,0,0,0-5.28,12.63A94.41,94.41,0,0,0,578.53,621v3.72q0,22,7.27,31.4t26.1,9.38a131.18,131.18,0,0,0,23.39-1.91L638,682.51a132,132,0,0,1-15.31,2q-10,.86-18,.85-27.57,0-41-15.16T550.2,623.55Z"/><path class="cls-1" d="M650.5,656.54V557.48h25.57v98.79q0,4.28,1,5.88c.63,1.08,1.83,1.62,3.61,1.62a28,28,0,0,0,6-.85L690,680.11a42.65,42.65,0,0,1-17.4,3.53,32.76,32.76,0,0,1-9.08-1.09,17.06,17.06,0,0,1-6.85-3.95,17.33,17.33,0,0,1-4.61-8.37A52.44,52.44,0,0,1,650.5,656.54Z"/><path class="cls-1" d="M698.89,584.1V559.38H726V584.1Zm.76,72.44V593.89h25.58v62.38c0,2.85.31,4.81.95,5.89s1.84,1.61,3.61,1.61a27.83,27.83,0,0,0,5.9-.85l3.42,17.19a42.89,42.89,0,0,1-17.5,3.53,32.81,32.81,0,0,1-9.08-1.09,16.72,16.72,0,0,1-6.79-3.95,17.59,17.59,0,0,1-4.57-8.32A52.37,52.37,0,0,1,699.65,656.54Z"/><path class="cls-1" d="M743.86,639v-1.53q0-22.9,10.93-34.08t31.57-11.17q6.84,0,15.59.86t12.46,2.09l-2.67,18.44a94.8,94.8,0,0,0-18-1.52q-13.41,0-18.12,5.7T771,637.62v2.48q0,14.16,4.8,19.77t18.4,5.61a129,129,0,0,0,17.77-1.14L814.41,683a96.62,96.62,0,0,1-12.6,1.62q-9.07.76-15.36.76-21.21,0-31.9-11.27T743.86,639Z"/><path class="cls-1" d="M828,683.64V557.48h25.58v68.74q5.42-2.29,16-12.55t14.35-19.59h27.58Q908.33,604.82,899,615.9a140.83,140.83,0,0,1-20.48,19.82,151,151,0,0,1,21.43,22.63q9.84,12.74,13.08,25.29H885.43q-3.24-11-14.36-23.34t-17.49-15.93v39.27Z"/><rect class="cls-2" width="3130.53" height="783"/></g></g></svg>