<svg xmlns="http://www.w3.org/2000/svg" viewBox="0 0 3094.34 579.64"><defs><style>.cls-1{fill:#ef1837;}.cls-2{fill:#223059;}.cls-3{fill:#354b8c;}.cls-4{fill:#1b365d;}</style></defs><g id="Capa_2" data-name="Capa 2"><g id="Capa_2-2" data-name="Capa 2"><path class="cls-1" d="M502.7,271.53V104.34H464.52V306.82H606.83V271.53Z"/><path class="cls-1" d="M738.15,164.22v72.89c0,21.69-14.75,39.92-36.44,39.92-22.56,0-34.43-16.49-34.43-38.18V164.22H632v74.92c0,44.25,24.88,70,59,70,20,0,33.55-6.93,48.31-21.4l2.31,19.38h31.53V164.22Z"/><path class="cls-1" d="M849.23,272.1,914.89,181V164.22H800.64v32.11H863.7l-68.27,95.74v14.75h120V272.1Z"/><path class="cls-1" d="M1168.56,104.63l-63.35,87.07-63.34-87.07h-44V307.11h38.18V159.88l64.5,88.22h7.52l66-87.93V307.11h38.18V104.63Z"/><path class="cls-1" d="M1361.49,164.22l-1.16,19.67c-8.1-14.18-26.32-23.15-45.41-23.15-41.65-.28-74.34,25.46-74.34,74.63,0,50.05,31.25,76.08,73.47,75.79,15.92-.29,38.18-8.38,46.28-25.16l1.75,20.82h33.25V164.22Zm-43.38,114.54c-23.44,0-42.24-16.2-42.24-43.39s18.8-43.09,42.24-43.09C1373.65,192.28,1373.65,278.76,1318.11,278.76Z"/><path class="cls-1" d="M1500.63,160.46c-14.47,0-29.22,2.61-40.21,20.25l-2.6-16.49h-32.69v142.6h35.29V231.61c0-26.32,17.06-36.15,35.57-36.15,11.57,0,18.23,3.19,25.46,9.25l15.9-30.65C1529.55,166.24,1515.38,160.46,1500.63,160.46Z"/><path class="cls-1" d="M1789.88,203.85c-.87-50-31.82-99.51-101.24-99.51h-79.55V306.82h79.55C1759.51,306.82,1790.75,255.05,1789.88,203.85Zm-101.24,66.23H1647V140.5h41.66c44,0,62.48,31.53,63.35,63.06C1752.86,236.54,1734.63,270.08,1688.64,270.08Z"/><path class="cls-1" d="M1887.93,160.46c-14.46,0-29.21,2.61-40.2,20.25l-2.6-16.49h-32.69v142.6h35.29V231.61c0-26.32,17.06-36.15,35.57-36.15,11.57,0,18.23,3.19,25.46,9.25l15.9-30.65C1916.86,166.24,1902.68,160.46,1887.93,160.46Z"/><path class="cls-1" d="M2005.08,161.32c-45.41,0-73.76,33.56-73.76,74.35,0,41.07,27.77,74.33,74,74.33s74.34-33.26,74.34-74.33C2079.71,194.88,2050.5,161.32,2005.08,161.32Zm.29,116.29c-25.74,0-38.76-20.25-38.76-41.94,0-21.41,13.3-42.23,38.76-42.23,23.72,0,38.76,20.82,38.76,42.23C2044.13,257.36,2031.11,277.61,2005.37,277.61Z"/><path class="cls-1" d="M2241.11,231.9c0-15.62-4.05-29.79-15-42.22L2242,169.42l-26-19.66-14.18,17.93c-9.84-6.66-21.4-8.1-32.68-8.1-39.91,0-72.32,27.77-72.32,72.31s27.77,71.74,72.32,71.74c17.64,0,36.15,9,36.15,28.63s-15.91,30.66-36.15,30.66-37.32-12.15-37.32-30.66h-35c0,38.47,30.95,63.64,72.32,63.64s71.44-24.3,71.44-63.64c0-18.22-5.79-35.28-29.51-47.14C2234.46,274.43,2241.11,249.55,2241.11,231.9Zm-72,39.63c-20.54,0-37.32-14.75-37.32-39.63s16.78-40.2,37.32-40.2c20.24,0,37,15.61,37,40.2S2189.33,271.53,2169.09,271.53Z"/><path class="cls-1" d="M2370.7,164.22v72.89c0,21.69-14.76,39.92-36.45,39.92-22.57,0-34.42-16.49-34.42-38.18V164.22h-35.29v74.92c0,44.25,24.87,70,59,70,20,0,33.55-6.93,48.3-21.4l2.32,19.38h31.53V164.22Z"/><path class="cls-1" d="M2506.35,159.88c-46.28,0-75.78,31.24-75.78,74.62,0,45.71,29.21,76.08,78.39,76.08,21.69,0,46.28-7.52,61.32-23.14l-22.56-22.27c-8.1,8.39-25.17,13.3-38.18,13.3-24.88,0-40.21-12.72-42.52-30.37h111.36C2583.88,189.39,2554.09,159.88,2506.35,159.88Zm-38.75,59c5.21-18.51,20.82-27.77,39.92-27.77,20.24,0,34.7,9.26,37,27.77Z"/><path class="cls-1" d="M2681.06,160.46c-14.45,0-29.21,2.61-40.2,20.25l-2.6-16.49h-32.69v142.6h35.29V231.61c0-26.32,17.07-36.15,35.58-36.15,11.57,0,18.22,3.19,25.46,9.25l15.9-30.65C2710,166.24,2695.82,160.46,2681.06,160.46Z"/><path class="cls-1" d="M2731.11,169.13V306.82h37V169.13Zm13-64.21L2732,146v1.73h28.63l21.4-41.35v-1.46Z"/><path class="cls-1" d="M2913,164.22l-1.15,19.67c-8.1-14.18-26.33-23.15-45.42-23.15-41.64-.28-74.33,25.46-74.33,74.63,0,50.05,31.24,76.08,73.47,75.79,15.91-.29,38.18-8.38,46.28-25.16l1.74,20.82h33.26V164.22Zm-43.38,114.54c-23.43,0-42.23-16.2-42.23-43.39s18.8-43.09,42.23-43.09C2925.2,192.28,2925.2,278.76,2869.66,278.76Z"/><path class="cls-1" d="M3068.22,202.37c-10-9.48-21.53-12.64-35-12.64-16.65,0-25.84,5.17-25.84,14.07,0,9.19,8.33,14.36,26.41,15.5,26.7,1.72,60.57,7.75,60.57,45.36,0,25-20.38,46.5-60.86,46.5-22.39,0-44.78-3.73-65.44-25.26l17.22-25c10,11.2,33,19.53,48.8,19.81,13.2.29,25.55-6.6,25.55-16.93,0-9.76-8-13.78-28.14-14.93-26.69-2-58.56-11.77-58.56-43.92,0-32.72,33.88-44.21,59.71-44.21,22.11,0,38.75,4.31,55.12,18.66Z"/><path class="cls-2" d="M123.63,214.13a248.35,248.35,0,0,0,90.23-90A245.84,245.84,0,0,0,247.19,4.25c0-1.25,0-2.51,0-3.77H123.59V124.11H0a.49.49,0,0,0,0,.12v123a246.07,246.07,0,0,0,123.59-33.07Z"/><path class="cls-2" d="M370.55,124.11A246,246,0,0,0,247.23,157l0,0a248.31,248.31,0,0,0-90.82,90.71,245.79,245.79,0,0,0-32.74,110.39c0,.25,0,.5,0,.75q-.32,6.19-.31,12.49h124V247.76H370.77v1.87l.05-.06a3.1,3.1,0,0,0,.66-1.81h-.66V124.11Z"/><path class="cls-3" d="M267.81,40.3,299.2,64l-12,39a1,1,0,0,0,0,.24.57.57,0,0,0,.57.6.62.62,0,0,0,.23,0,1.77,1.77,0,0,0,.17-.12l31-24.26,30.89,24.35a.63.63,0,0,0,.39.17.58.58,0,0,0,.56-.61.74.74,0,0,0-.05-.24v0l-11.84-39,31.11-23.61a.63.63,0,0,0,.18-.12.7.7,0,0,0,.15-.43.58.58,0,0,0-.55-.63l-38.42-.06L319.85.48l0,0a.18.18,0,0,0,0-.09.57.57,0,0,0-.51-.34.54.54,0,0,0-.51.36l0,.12-11.9,38.7L268,39.12a.61.61,0,0,0-.57.63.63.63,0,0,0,.17.43A.44.44,0,0,0,267.81,40.3Z"/><path class="cls-4" d="M307.4,505.48v-20h16.54v20Zm0,74.16v-66.1h16.54v66.1Z"/><path class="cls-4" d="M332.06,551.25l1.77-13.39q18.33,2.4,23.71,2.41a28.3,28.3,0,0,0,8.58-1.14,11.67,11.67,0,0,0,5.32-3.12,12.57,12.57,0,0,0,2.52-4,13.18,13.18,0,0,0,.74-4.47,11.83,11.83,0,0,0-1.8-6.59,12.85,12.85,0,0,0-4.71-4.32,60.18,60.18,0,0,0-6.65-3q-3.75-1.46-7.68-2.59a36.62,36.62,0,0,1-7.61-3.15,33.61,33.61,0,0,1-6.52-4.6,18.56,18.56,0,0,1-4.62-7.12,28.75,28.75,0,0,1-1.77-10.49,26.72,26.72,0,0,1,2.1-11,20,20,0,0,1,5.18-7.25,23.55,23.55,0,0,1,7.67-4.14,39.74,39.74,0,0,1,8.51-2,79.21,79.21,0,0,1,8.68-.43,130.23,130.23,0,0,1,14.44.81,81.38,81.38,0,0,1,11.53,1.95l-1.73,13.22a72.62,72.62,0,0,0-8.63-1.52,84.79,84.79,0,0,0-11-.74,43.17,43.17,0,0,0-9,.81,12.57,12.57,0,0,0-6.21,3.22,8.42,8.42,0,0,0-2.48,6.31,9.13,9.13,0,0,0,1.42,5.14,10.55,10.55,0,0,0,3.86,3.5,35.9,35.9,0,0,0,5.61,2.45q3.15,1.1,6.59,2.16t6.82,2.37a30.35,30.35,0,0,1,6.46,3.47,28.12,28.12,0,0,1,5.46,5,21.17,21.17,0,0,1,3.76,7.4,35.26,35.26,0,0,1,1.38,10.27,31.36,31.36,0,0,1-1.81,11,22.15,22.15,0,0,1-4.78,7.85,23.76,23.76,0,0,1-7.18,5,35.23,35.23,0,0,1-8.68,2.71,56.5,56.5,0,0,1-9.55.77q-7,0-15.69-.7A87.91,87.91,0,0,1,332.06,551.25Z"/><path class="cls-4" d="M402.13,520.33v-2.12q0-16.83,8.67-25.21t25-8.37q16.31,0,25,8.37t8.69,25.21v2.12q0,16.89-8.69,25.27t-25,8.38q-16.35,0-25-8.38T402.13,520.33Zm20.15,0q0,9.32,3.42,14.12t10.12,4.79q6.63,0,10.08-4.83t3.46-14.08v-1.9q0-19-13.54-19-6.7,0-10.12,4.77t-3.42,14.07Z"/><path class="cls-4" d="M480.4,552.71V492.4a63.49,63.49,0,0,1,15.09-5.58A69.12,69.12,0,0,1,512,484.7q11.13,0,18.1,4.17a65.48,65.48,0,0,1,22.38-4.17q14.09,0,20.95,7t6.86,19.41v41.64h-19V512.9q0-6-2.67-9.29t-8.05-3.29a19.43,19.43,0,0,0-5.53.95,22.35,22.35,0,0,0-5.18,2.23v49.21h-19V510.29q0-10-10.68-10a26.41,26.41,0,0,0-5.59.71,22.74,22.74,0,0,0-5.16,1.69v50Z"/><path class="cls-4" d="M591.39,520.33v-2.12q0-16.83,8.67-25.21t25-8.37q16.32,0,25,8.37t8.69,25.21v2.12q0,16.89-8.69,25.27t-25,8.38q-16.35,0-25-8.38T591.39,520.33Zm20.15,0q0,9.32,3.42,14.12t10.12,4.79q6.63,0,10.08-4.83t3.46-14.08v-1.9q0-19-13.54-19-6.69,0-10.12,4.77t-3.42,14.07Z"/><path class="cls-4" d="M665.57,552.07l1-13.36q14.49,1.56,21.91,1.56c4.45,0,7.7-.6,9.73-1.81s3.06-2.74,3.06-4.62a5.45,5.45,0,0,0-1.77-4.14,11.52,11.52,0,0,0-4.83-2.53l-6.72-1.92q-3.65-1-7.32-2.48a34.38,34.38,0,0,1-6.72-3.5,15,15,0,0,1-4.95-5.83,19.71,19.71,0,0,1-1.91-9,22.09,22.09,0,0,1,1.29-7.81,13.61,13.61,0,0,1,3.68-5.52,26.28,26.28,0,0,1,5-3.46,20.56,20.56,0,0,1,6.09-2q3.45-.6,6.08-.81c1.75-.14,3.67-.21,5.77-.21a137.72,137.72,0,0,1,23.32,1.76L717.08,500a110.59,110.59,0,0,0-17.1-1.56c-2.13,0-4,.07-5.5.22a21.68,21.68,0,0,0-4.34.83,6.62,6.62,0,0,0-3,1.78,4.2,4.2,0,0,0-1,2.9,4.14,4.14,0,0,0,2,3.56,16.19,16.19,0,0,0,5.1,2.15l6.72,1.69a51.72,51.72,0,0,1,7.22,2.39,29.64,29.64,0,0,1,6.5,3.66,15.78,15.78,0,0,1,4.79,6.25,22.74,22.74,0,0,1,1.85,9.5q0,20.64-27.54,20.64A187.3,187.3,0,0,1,665.57,552.07Z"/><path class="cls-4" d="M758.88,520.33v-2.12q0-16.83,8.09-25.17t23.65-8.34q15.84,0,23.86,8.34t8,25.94v6.79h-43.4q1.07,7.63,5.62,10.54t15,2.89a116.48,116.48,0,0,0,21.43-2l1.9,13.71a75.15,75.15,0,0,1-11.62,2,120.51,120.51,0,0,1-14.3,1q-19.06,0-28.68-8T758.88,520.33Zm19.3-6.44h25.31q-.21-14.42-12.44-14.42-6.09,0-9.23,3.54T778.18,513.89Z"/><path class="cls-4" d="M830.51,552.07l1-13.36q14.49,1.56,21.91,1.56c4.46,0,7.7-.6,9.74-1.81s3.05-2.74,3.05-4.62a5.45,5.45,0,0,0-1.77-4.14,11.52,11.52,0,0,0-4.83-2.53l-6.72-1.92q-3.64-1-7.32-2.48a34.67,34.67,0,0,1-6.72-3.5,15,15,0,0,1-5-5.83,19.71,19.71,0,0,1-1.91-9,21.87,21.87,0,0,1,1.3-7.81,13.49,13.49,0,0,1,3.67-5.52,26.28,26.28,0,0,1,5-3.46,20.56,20.56,0,0,1,6.09-2q3.45-.6,6.08-.81c1.75-.14,3.67-.21,5.77-.21a137.93,137.93,0,0,1,23.33,1.76L882,500a110.81,110.81,0,0,0-17.11-1.56c-2.13,0-4,.07-5.5.22a21.68,21.68,0,0,0-4.34.83,6.62,6.62,0,0,0-3.05,1.78,4.2,4.2,0,0,0-1,2.9,4.14,4.14,0,0,0,2,3.56,16.29,16.29,0,0,0,5.1,2.15l6.72,1.69a51.72,51.72,0,0,1,7.22,2.39,29.64,29.64,0,0,1,6.5,3.66,15.78,15.78,0,0,1,4.79,6.25,22.74,22.74,0,0,1,1.85,9.5q0,20.64-27.54,20.64A187.4,187.4,0,0,1,830.51,552.07Z"/><path class="cls-4" d="M891.58,500.18V486h7.78V471.62h19V486h13.5v14.21h-13.5v27.17q0,5,2,7.8a6.83,6.83,0,0,0,5.9,2.78,38.31,38.31,0,0,0,6.86-.49l.71,14.49a50.2,50.2,0,0,1-9.55.78q-12.72,0-18.84-6.36t-6.11-18V500.18Z"/><path class="cls-4" d="M940.65,552.71V491.1A41.31,41.31,0,0,1,953,486.35a65.29,65.29,0,0,1,14.53-1.65,80.53,80.53,0,0,1,16.19,1.62l-2.76,14.21a58.22,58.22,0,0,0-8.83-.63,44.2,44.2,0,0,0-12.45,1.62v51.19Z"/><path class="cls-4" d="M986.18,520.33v-2.12q0-16.83,8.09-25.17t23.65-8.34q15.84,0,23.86,8.34t8,25.94v6.79h-43.4q1.05,7.63,5.62,10.54t15,2.89a116.45,116.45,0,0,0,21.42-2l1.91,13.71a75.39,75.39,0,0,1-11.62,2,120.65,120.65,0,0,1-14.3,1q-19.08,0-28.68-8T986.18,520.33Zm19.3-6.44h25.31q-.21-14.42-12.45-14.42-6.08,0-9.22,3.54T1005.48,513.89Z"/><path class="cls-4" d="M1060.62,532.56V458.89h19v73.46a9.44,9.44,0,0,0,.71,4.38,2.84,2.84,0,0,0,2.68,1.2,21.08,21.08,0,0,0,4.46-.63l2.47,12.78a31.64,31.64,0,0,1-12.94,2.63,24.46,24.46,0,0,1-6.75-.81,12.71,12.71,0,0,1-5.09-2.94,13,13,0,0,1-3.43-6.22A39.1,39.1,0,0,1,1060.62,532.56Z"/><path class="cls-4" d="M1096.75,532.56V458.89h19v73.46a9.47,9.47,0,0,0,.7,4.38,2.86,2.86,0,0,0,2.69,1.2,20.92,20.92,0,0,0,4.45-.63l2.48,12.78a31.64,31.64,0,0,1-12.94,2.63,24.46,24.46,0,0,1-6.75-.81,12.71,12.71,0,0,1-5.09-2.94,12.9,12.9,0,0,1-3.43-6.22A39.1,39.1,0,0,1,1096.75,532.56Z"/><path class="cls-4" d="M1130.47,533.11v-2.68q0-9.52,6.47-14.66t18-5.13a42.9,42.9,0,0,1,16.76,3.87v-6.37c0-3.07-1-5.28-3.08-6.64s-5.64-2-10.78-2a113.35,113.35,0,0,0-21.28,2.29l-2.75-14a87,87,0,0,1,12.51-2.05,140.3,140.3,0,0,1,15.55-1q14.36,0,21.6,5.76t7.25,17.92v41.15a77.57,77.57,0,0,1-13.93,3.25,104.71,104.71,0,0,1-15.41,1.2,62.58,62.58,0,0,1-11.7-1,35.42,35.42,0,0,1-9.72-3.32,17.15,17.15,0,0,1-7-6.5A19.23,19.23,0,0,1,1130.47,533.11Zm20.15.44q0,9.48,12.23,9.47a30.09,30.09,0,0,0,8.84-1.27v-15q-3.68-2.4-10.46-2.4-5.24,0-7.92,2.23a7.75,7.75,0,0,0-2.69,6.32Z"/><path class="cls-4" d="M1200.12,552.07l1-13.36q14.49,1.56,21.92,1.56,6.67,0,9.73-1.81c2-1.2,3-2.74,3-4.62a5.48,5.48,0,0,0-1.76-4.14,11.5,11.5,0,0,0-4.84-2.53l-6.72-1.92q-3.65-1-7.32-2.48a35,35,0,0,1-6.72-3.5,15.12,15.12,0,0,1-5-5.83,19.71,19.71,0,0,1-1.9-9,22.09,22.09,0,0,1,1.29-7.81,13.59,13.59,0,0,1,3.67-5.52,26,26,0,0,1,5-3.46,20.49,20.49,0,0,1,6.08-2q3.46-.6,6.08-.81c1.75-.14,3.67-.21,5.77-.21a137.84,137.84,0,0,1,23.33,1.76L1251.64,500a110.8,110.8,0,0,0-17.1-1.56c-2.14,0-4,.07-5.51.22a21.57,21.57,0,0,0-4.33.83,6.66,6.66,0,0,0-3.06,1.78,4.25,4.25,0,0,0-1,2.9,4.13,4.13,0,0,0,2.05,3.56,16.23,16.23,0,0,0,5.09,2.15l6.72,1.69a51.85,51.85,0,0,1,7.23,2.39,29.88,29.88,0,0,1,6.5,3.66,15.76,15.76,0,0,1,4.78,6.25,22.59,22.59,0,0,1,1.85,9.5q0,20.64-27.54,20.64A187.4,187.4,0,0,1,1200.12,552.07Z"/><path class="cls-4" d="M1293.43,520.33v-2.12q0-16.83,8.1-25.17t23.65-8.34q15.84,0,23.86,8.34t8,25.94v6.79h-43.4q1.06,7.63,5.63,10.54t15,2.89a116.45,116.45,0,0,0,21.42-2l1.91,13.71a75.39,75.39,0,0,1-11.62,2,120.65,120.65,0,0,1-14.3,1q-19.08,0-28.68-8T1293.43,520.33Zm19.3-6.44H1338q-.21-14.42-12.44-14.42-6.07,0-9.22,3.54T1312.73,513.89Z"/><path class="cls-4" d="M1367.88,552.71V492.4a66.92,66.92,0,0,1,15.66-5.58,75.38,75.38,0,0,1,17.36-2.12q14.41,0,21.42,6.82t7,19.12v42.07h-19v-40q0-5.87-2.83-9.12c-1.88-2.16-4.71-3.25-8.48-3.25a34.26,34.26,0,0,0-6.4.71,23.86,23.86,0,0,0-5.69,1.69v50Z"/><path class="cls-4" d="M1469.9,532.56V458.89h19v73.46a9.47,9.47,0,0,0,.7,4.38,2.86,2.86,0,0,0,2.69,1.2,20.92,20.92,0,0,0,4.45-.63l2.48,12.78a31.64,31.64,0,0,1-12.94,2.63,24.46,24.46,0,0,1-6.75-.81,12.71,12.71,0,0,1-5.09-2.94,12.9,12.9,0,0,1-3.43-6.22A39.1,39.1,0,0,1,1469.9,532.56Z"/><path class="cls-4" d="M1503.62,533.11v-2.68q0-9.52,6.47-14.66t18-5.13a42.9,42.9,0,0,1,16.76,3.87v-6.37q0-4.61-3.08-6.64t-10.78-2a113.35,113.35,0,0,0-21.28,2.29l-2.76-14a87.5,87.5,0,0,1,12.52-2.05,140.3,140.3,0,0,1,15.55-1q14.35,0,21.6,5.76t7.25,17.92v41.15a77.77,77.77,0,0,1-13.93,3.25,104.71,104.71,0,0,1-15.41,1.2,62.58,62.58,0,0,1-11.7-1,35.31,35.31,0,0,1-9.72-3.32,17.15,17.15,0,0,1-7-6.5A19.23,19.23,0,0,1,1503.62,533.11Zm20.15.44q0,9.48,12.23,9.47a30.09,30.09,0,0,0,8.84-1.27v-15q-3.67-2.4-10.46-2.4-5.24,0-7.92,2.23a7.75,7.75,0,0,0-2.69,6.32Z"/><path class="cls-4" d="M1601.55,552.07l1-13.36q14.49,1.56,21.92,1.56,6.68,0,9.73-1.81t3-4.62a5.45,5.45,0,0,0-1.77-4.14,11.46,11.46,0,0,0-4.83-2.53l-6.72-1.92q-3.64-1-7.32-2.48a35,35,0,0,1-6.72-3.5,15.12,15.12,0,0,1-5-5.83,19.71,19.71,0,0,1-1.91-9,22.09,22.09,0,0,1,1.3-7.81,13.49,13.49,0,0,1,3.67-5.52,26,26,0,0,1,5-3.46,20.49,20.49,0,0,1,6.08-2c2.31-.4,4.33-.67,6.08-.81s3.67-.21,5.77-.21a137.84,137.84,0,0,1,23.33,1.76L1653.07,500a110.81,110.81,0,0,0-17.11-1.56c-2.13,0-4,.07-5.5.22a21.57,21.57,0,0,0-4.33.83,6.66,6.66,0,0,0-3.06,1.78,4.25,4.25,0,0,0-1,2.9,4.13,4.13,0,0,0,2,3.56,16.23,16.23,0,0,0,5.09,2.15l6.72,1.69a51.72,51.72,0,0,1,7.22,2.39,29.41,29.41,0,0,1,6.5,3.66,15.69,15.69,0,0,1,4.79,6.25,22.74,22.74,0,0,1,1.85,9.5q0,20.64-27.54,20.64A187.4,187.4,0,0,1,1601.55,552.07Z"/><path class="cls-4" d="M1664.6,533.11v-2.68q0-9.52,6.47-14.66t18-5.13a42.89,42.89,0,0,1,16.75,3.87v-6.37q0-4.61-3.07-6.64t-10.79-2a113.44,113.44,0,0,0-21.28,2.29l-2.75-14a87.3,87.3,0,0,1,12.51-2.05,140.3,140.3,0,0,1,15.55-1q14.35,0,21.6,5.76t7.25,17.92v41.15a77.57,77.57,0,0,1-13.93,3.25,104.71,104.71,0,0,1-15.41,1.2,62.58,62.58,0,0,1-11.7-1,35.42,35.42,0,0,1-9.72-3.32,17.21,17.21,0,0,1-7-6.5A19.23,19.23,0,0,1,1664.6,533.11Zm20.15.44q0,9.48,12.23,9.47a30.09,30.09,0,0,0,8.84-1.27v-15q-3.67-2.4-10.46-2.4-5.23,0-7.92,2.23a7.75,7.75,0,0,0-2.69,6.32Z"/><path class="cls-4" d="M1737.07,532.56V458.89h19v73.46a9.47,9.47,0,0,0,.7,4.38,2.87,2.87,0,0,0,2.69,1.2,21.08,21.08,0,0,0,4.46-.63l2.47,12.78a31.64,31.64,0,0,1-12.94,2.63,24.46,24.46,0,0,1-6.75-.81,12.71,12.71,0,0,1-5.09-2.94,12.9,12.9,0,0,1-3.43-6.22A39.1,39.1,0,0,1,1737.07,532.56Z"/><path class="cls-4" d="M1772.56,527.26V486h19v39.45q0,12.93,11,12.94a48.18,48.18,0,0,0,11.49-1.42V486h19v63.34a82.22,82.22,0,0,1-15.4,3.43,118.51,118.51,0,0,1-16.1,1.24Q1772.56,554,1772.56,527.26Z"/><path class="cls-4" d="M1843.61,520.33v-1.77q0-16.26,7.07-25.1t20.34-8.83q7.83,0,17.56,3.9V459.46h19v91a99.58,99.58,0,0,1-14.45,2.58,138,138,0,0,1-15.22,1,54,54,0,0,1-10.85-1,33.38,33.38,0,0,1-9.39-3.47,24.76,24.76,0,0,1-7.48-6.22,28.08,28.08,0,0,1-4.82-9.62A45.5,45.5,0,0,1,1843.61,520.33Zm20.15,0q0,18.91,16.22,18.91a31.81,31.81,0,0,0,8.6-1.12v-35a22.17,22.17,0,0,0-10.65-2.82q-14.16,0-14.17,18.49Z"/><path class="cls-4" d="M1919.69,524.36V459.17h16.68v65.19Zm0,28.07V532.28h16.68v20.15Z"/></g></g></svg>